<?xml version="1.0" encoding="UTF-8" standalone="no"?>
<!-- Created with Inkscape (http://www.inkscape.org/) -->

<svg
   xmlns:dc="http://purl.org/dc/elements/1.1/"
   xmlns:cc="http://creativecommons.org/ns#"
   xmlns:rdf="http://www.w3.org/1999/02/22-rdf-syntax-ns#"
   xmlns:svg="http://www.w3.org/2000/svg"
   xmlns="http://www.w3.org/2000/svg"
   xmlns:sodipodi="http://sodipodi.sourceforge.net/DTD/sodipodi-0.dtd"
   xmlns:inkscape="http://www.inkscape.org/namespaces/inkscape"
   id="svg3741"
   version="1.1"
   inkscape:version="0.91 r13725"
   width="1071.1545"
   height="1223.5497"
   viewBox="0 0 1071.1546 1223.5497"
   sodipodi:docname="big-lebowski-nobod_improved.svg">
  <metadata
     id="metadata3747">
    <rdf:RDF>
      <cc:Work
         rdf:about="">
        <dc:format>image/svg+xml</dc:format>
        <dc:type
           rdf:resource="http://purl.org/dc/dcmitype/StillImage" />
        <dc:title></dc:title>
      </cc:Work>
    </rdf:RDF>
  </metadata>
  <defs
     id="defs3745" />
  <sodipodi:namedview
     pagecolor="#ffffff"
     bordercolor="#666666"
     borderopacity="1"
     objecttolerance="10"
     gridtolerance="10"
     guidetolerance="10"
     inkscape:pageopacity="0"
     inkscape:pageshadow="2"
     inkscape:window-width="1920"
     inkscape:window-height="1016"
     id="namedview3743"
     showgrid="false"
     inkscape:zoom="1.3309164"
     inkscape:cx="577.68027"
     inkscape:cy="994.20676"
     inkscape:window-x="0"
     inkscape:window-y="27"
     inkscape:window-maximized="1"
     inkscape:current-layer="layer9"
     fit-margin-top="0"
     fit-margin-left="0"
     fit-margin-right="0"
     fit-margin-bottom="0" />
  <g
     inkscape:groupmode="layer"
     id="layer10"
     inkscape:label="Head_Bottom"
     style="display:inline">
    <path
       transform="translate(-22.5,-18.89008)"
       style="display:inline;fill:#8e696a"
       d="M 432.05587,237.63222 370.12648,74.453957 c 0,0 96.11498,-25.455148 149.23668,14.421561 0.10694,51.296812 -3.14973,137.402382 -3.14973,137.402382 z"
       id="path3769"
       inkscape:connector-curvature="0"
       sodipodi:nodetypes="ccccc" />
  </g>
  <g
     inkscape:groupmode="layer"
     id="layer9"
     inkscape:label="Head"
     style="display:inline">
    <path
       transform="translate(-22.5,-18.89008)"
       style="fill:#6b4b4f"
       d="M 368.68114,261.0153 C 328.37765,220.5728 313.15083,111.43781 351.57925,70.082399 390.00768,28.726977 496.17063,38.946682 531.02368,103.06203 c 15.81002,34.47668 35.488,120.32276 12.3716,156.74232 -7.48179,1.88794 -9.48373,3.80014 -10.67417,10.19565 z m 111.6403,-36.99609 -3.49094,-9.19711 c -1.92001,-5.0584 -4.3503,-10.52876 -5.40064,-12.15635 -1.23981,-1.92121 -2.04931,-6.81093 -2.30772,-13.93971 -0.69668,-19.21965 -8.59608,-31.06332 -14.60338,-21.89502 -2.4984,3.81304 -2.54131,9.23659 -0.14376,18.16898 2.21196,8.24096 2.39974,18.58354 0.45521,25.07377 -1.22072,4.07443 -1.07839,5.32156 1.01525,8.89503 2.39009,2.34881 11.29676,8.43534 14.26794,9.6686 1.65637,0.66227 3.06474,1.23979 3.12967,1.28336 2.59351,-1.95583 4.42968,-3.62561 7.07837,-5.90155 z m 27.39652,-118.08674 3.23354,2.11869 -1.4317,-3.45354 c -0.78744,-1.89946 -2.6835,-4.637216 -4.21348,-6.083915 -1.52996,-1.4467 -3.16446,-3.836117 -3.63219,-5.309818 -0.87241,-2.748702 -9.00642,-1.113188 -20.63464,-7.969438 -9.29414,-5.480019 -31.11798,-5.073102 -40.34919,-4.037186 l -62.19983,4.25816 c 0,0.617185 1.98544,3.723211 4.41207,6.902281 2.42664,3.17907 4.09622,6.291194 3.71017,6.915832 -0.38605,0.624636 0.68335,2.043354 2.37643,3.152704 2.83514,1.85765 4.19595,1.85252 17.22458,-0.065 9.41677,-1.38595 16.23671,-1.75538 20.399,-1.10499 3.43901,0.53737 11.87775,1.05882 18.75275,1.15877 9.9913,0.14526 13.87979,0.76453 19.375,3.0856 0,0 26.54128,-4.07327 42.97749,0.43189 z"
       id="path3765"
       inkscape:connector-curvature="0"
       sodipodi:nodetypes="cscccccssssssccccccssssccsssssscc" />
  </g>
  <g
     id="g3751"
     transform="translate(-22.5,-18.89008)" />
  <g
     inkscape:groupmode="layer"
     id="layer1"
     inkscape:label="Brown"
     style="display:inline"
     transform="translate(-35.251043,-23.140425)">
    <path
       transform="translate(12.751043,4.2503449)"
       style="fill:#49221c"
       d="m 322.5,414.83335 c 44.62523,-35.48094 10.95842,-108.16728 -15.75351,-158.73367 -17.67994,-15.76669 -36.86068,-98.20545 -21.62103,-143.96983 11.87316,-55.550951 69.86538,-95.476161 126.1636,-90.426738 58.54291,-15.3209321 100.07988,34.719462 120.07435,82.802918 27.77379,22.87536 26.36485,109.28547 10.58798,105.18147 -2.17686,-23.18498 -9.06116,-47.82222 -8.82639,-11.5625 -45.48382,25.74961 -94.06358,-38.1239 -49.47783,-66.76731 28.54103,-23.08464 49.28843,10.6559 49.89224,22.75024 6.59509,-75.407499 -72.4254,-112.754995 -136.73556,-96.287087 -139.32484,61.302887 56.48276,80.000507 50.77195,114.706847 6.55759,14.68833 -0.0749,56.50211 -7.13768,54.04925 24.12167,7.10691 62.00137,0.77078 34.03168,35.6482 23.43986,1.05568 57.11218,7.65935 57.11218,7.65935 -6.01415,6.70518 -17.49293,78.06998 0.24852,110.88912 -5.49166,42.41271 351.1632,231.69716 250.62351,55.47633 0.19867,-54.34804 35.06746,-134.14239 97.50608,-138.38933 25.90012,-15.55144 128.59551,-38.31261 81.28991,13.67585 25.27651,47.08256 74.3882,64.43223 118.6407,88.15941 56.688,37.66534 -78.8543,12.64346 -97.45882,-2.20302 -51.81465,66.37435 -29.03691,70.59124 -31.9633,98.89729 0,0 -632.13551,41.37308 -627.96858,-81.55679 z m 86.7484,-164.14848 c 21.15868,-22.66203 26.19329,-71.07191 -12.57359,-36.0147 -22.67186,-18.91296 -65.5204,-19.27446 -30.31174,15.58763 8.68704,6.55445 30.56132,30.24184 42.88533,20.42707 z m 122.0862,13.94055 c 11.24437,-32.61473 13.93434,-1.74861 0,0 z m 8.12838,-20.56292 c 1.06357,-44.9957 21.53532,4.71421 0,0 z"
       id="path3761"
       inkscape:connector-curvature="0"
       sodipodi:nodetypes="cccccccccccccccccccccccccccccc" />
  </g>
  <g
     inkscape:groupmode="layer"
     id="layer6"
     inkscape:label="Purple"
     style="display:inline"
     transform="translate(-35.251043,-23.140425)">
    <path
       transform="translate(12.751043,4.2503449)"
       style="fill:#59328d"
       d="m 112.5774,740.27553 c 24.57192,-72.13022 11.9975,-145.64448 48.09564,-207.09121 42.40939,-58.11874 115.50155,-87.92626 165.12135,-124.49768 46.72528,130.06112 239.87674,12.48872 239.87674,12.48872 61.26127,45.7413 126.09308,9.64094 182.81721,48.9729 101.92555,22.44311 15.66265,216.06418 -13.53825,264.91908 -29.23171,-0.57888 -34.5485,11.90327 -42.3548,32.29784 -19.41372,48.5961 -237.06981,279.20662 -392.34958,281.81142 -52.82483,0.8862 -159.19501,2.4999 -187.66831,-308.90107 z"
       id="path3767"
       inkscape:connector-curvature="0"
       sodipodi:nodetypes="cccccccsc" />
  </g>
  <g
     inkscape:groupmode="layer"
     id="layer8"
     inkscape:label="Dark Brown"
     style="display:inline"
     transform="translate(-35.251043,-23.140425)">
    <path
       transform="translate(12.751043,4.2503449)"
       style="fill:#280505"
       d="m 774.49366,638.75 c 9.5474,-43.01867 23.55261,-86.68692 13.05851,-127.15669 11.22043,-44.61139 -34.16478,-112.3337 26.63767,-110.23714 39.28013,-5.16256 52.39817,-59.06729 3.6884,-38.05166 -24.10964,12.71792 -29.69761,34.34073 -10.38895,-3.37873 7.07264,-48.31983 65.65749,-66.08608 98.22857,-65.52469 -34.24407,3.46989 -102.83895,26.90454 -83.84281,61.86852 38.16277,12.62947 27.72372,-59.86718 67.6748,-23.35722 18.4517,-6.30805 111.04445,-43.87988 48.86544,-11.51807 -35.88556,7.59761 -40.55535,56.56169 -70.59417,73.52006 27.7737,33.18322 64.87029,-33.21464 68.24036,-42.33631 8.51692,34.68788 -92.1103,72.32224 -22.87464,69.79668 33.89863,2.37783 51.41561,-95.39914 36.91921,-27.98508 -11.00622,46.75923 -75.93219,39.54872 -78.25085,16.83846 -19.63349,8.73452 -5.65176,-59.31095 -26.10033,-18.80001 -34.43981,11.88675 -88.24494,42.50705 -34.33322,73.17788 31.18829,20.20012 74.60359,34.65975 106.77921,8.144 24.95026,2.63023 -18.94184,63.02696 -8.85732,91.96809 -23.96656,19.53083 -61.70267,4.21134 -51.25134,47.859 -31.84488,36.494 -17.21921,123.77472 -74.29985,125.56521 C 778.25316,672.85752 774.49366,638.75 774.49366,638.75 Z m 16.75634,95 c -3.19368,-4.48432 -3.19368,4.48432 0,0 z M 326.94587,480.97186 c -25.42498,-13.60499 27.24048,-116.53306 26.47215,-51.83676 -0.70619,15.71646 -16.51915,49.20225 -26.47215,51.83676 z m 59.18145,-26.28436 c -25.66972,-33.92063 -45.65404,-96.90842 -12.24983,-131.69643 36.20771,-35.34539 50.5693,-56.70978 65.34351,-62.31666 -25.42098,-35.19698 20.46614,-23.38849 33.74335,-20.66849 19.96632,-9.68429 -0.42685,33.49756 -0.42685,33.49756 0,0 -9.3858,0.74821 -8.32766,10.54923 43.79413,-1.80499 51.96487,67.69711 20.52844,93.19509 -25.08889,37.74345 -40.83777,98.04707 -98.61096,77.4397 z M 445,354.375 c 31.66725,12.98089 66.52621,-49.85653 18.73756,-48.82969 -26.72562,-4.42693 -74.51668,-13.40324 -65.82961,28.67383 16.60773,12.7526 28.60779,20.81127 47.09205,20.15586 z m 8.75,-19.54768 c -40.32513,14.17781 -49.24114,-28.17288 -9.63634,-18.57117 22.05854,-9.17913 34.28571,18.12781 9.63634,18.57117 z M 328.125,277.83761 c -31.55311,-12.38982 -13.20981,-92.32555 8.125,-30.96261 -0.8212,7.33153 7.65362,35.70622 -8.125,30.96261 z m 165.27689,-83.45396 c -44.75847,-19.76865 9.52233,-75.80073 31.22322,-24.98058 5.42921,21.27516 -12.73314,32.06975 -31.22322,24.98058 z m 19.67752,-8.08329 c 4.77446,-28.95531 -16.52635,10.16531 0,0 z m -20.56027,-5.36286 c 28.8397,-16.03052 -17.82218,-14.42928 -0.75041,3.73597 z m -103.5495,9.01572 c -38.13557,-27.01006 -26.69151,-42.21644 -14.16443,-52.75336 46.21726,-25.80332 97.89191,42.06084 39.53635,52.55105 -8.08414,3.80542 -17.26163,3.07152 -25.37192,0.20231 z m 26.01688,-10.56198 c -1.48912,-26.87076 -16.121,0.50919 0,0 z m -22.98131,-3.88508 c 26.12651,-18.77617 -23.30482,5.42545 0,0 z m 129.02804,-33.37364 c -14.18928,-4.57655 -53.11303,-4.00595 -15.09523,-12.5101 10.545,-12.51337 35.31864,27.67947 15.09523,12.5101 z"
       id="path3755"
       inkscape:connector-curvature="0"
       sodipodi:nodetypes="ccccccccccccccccccccccccccccccccccccccccccccccccccccccccccccccc" />
  </g>
  <g
     inkscape:groupmode="layer"
     id="layer4"
     inkscape:label="Blue"
     style="display:inline"
     transform="translate(-35.251043,-23.140425)">
    <path
       transform="translate(12.751043,4.2503449)"
       style="fill:#250247"
       d="m 22.5,1240.608 c 31.10737,-49.7432 16.194312,-108.6895 27.49532,-162.9036 1.954725,-58.8763 6.710803,-117.0693 21.302226,-174.39589 4.877651,-37.92622 13.852834,-82.23258 38.371254,-161.46457 24.51843,-79.23199 5.71724,-148.37888 58.06842,-112.12283 32.85811,2.55652 83.81608,9.209 74.72471,-40.32257 -22.82553,33.71154 -33.80805,14.31855 -20.54965,-11.89854 -23.7712,21.97446 -41.3248,70.65198 -79.07483,35.03846 11.60078,-28.11829 35.84622,-82.72819 39.65094,-93.25078 -18.25065,32.74166 -34.3756,23.2061 -6.75507,-2.20163 21.85706,-26.08539 55.1228,-50.90933 63.36898,-11.46105 6.30984,30.20629 20.0136,71.01145 16.1575,26.57886 10.33784,-27.81438 -23.07628,-56.4017 20.9902,-58.53006 39.73588,-15.05406 -67.18482,5.15041 -12.5,-20.61633 166.01237,-128.77191 6.75455,52.05011 59.19944,69.39299 14.69745,66.79287 55.29812,-27.60948 100.39587,-8.25743 19.37528,-31.19046 17.64292,-3.89278 49.00053,-30.01853 34.71859,-30.81605 91.08288,7.41343 139.5292,2.37549 27.73055,16.00544 -4.94058,48.11731 -19.05439,42.825 -9.38798,24.94583 -39.36678,77.56216 -17.25089,22.20433 10.16801,-25.92075 15.60407,-72.80887 -15.89943,-27.62734 -18.45215,25.14405 -23.24711,-31.71114 -31.85023,15.06924 75.67917,-18.96061 -23.98448,59.76997 -23.55782,56.67584 18.74196,-29.55303 -37.06462,14.53408 -55.73355,-0.0412 -24.09852,8.22614 -27.38813,-14.91174 -40.89579,-3.99724 3.76649,-40.79769 -23.66253,48.05519 23.00137,28.502 48.17827,11.65733 81.88714,-15.43918 113.74069,-40.13224 28.9898,28.39729 68.1997,-9.99682 87.61859,-1.28294 1.61985,55.31054 27.4887,-51.11372 64.25641,-45.73353 49.48565,-24.95786 -41.64903,55.78278 11.30659,15.58008 76.08983,-40.1086 -39.51275,99.84802 10.46224,37.21654 5.56226,-25.51163 55.71945,-46.57718 15.50482,-11.38687 3.68399,3.69437 12.88828,0.45152 15.05061,-4.29658 -40.51376,124.95544 -6.36183,90.99063 -82.78997,286.12486 -23.11185,53.49701 -45.07274,108.99123 -42.1562,168.47006 -14.66187,53.1989 6.30435,123.0033 -16.57855,165.7057 -27.09191,10.0203 -74.99476,7.1623 -60.54954,49.3242 -174.59298,2.8771 -349.36803,1.263 -524,0.858 z m 208.8025,-224.2026 c 18.93675,-20.92312 78.17136,-41.03219 79.00514,-57.6554 -25.20581,9.58341 -94.66774,53.717 -85.86987,63.6106 l 6.8647,-5.9552 z m -22.2132,-67.32576 c 35.12214,-3.50536 75.99742,-33.7806 110.75867,-56.43853 28.30122,-7.25819 52.36053,-56.69983 14.96058,-27.95622 -48.5275,25.92984 -100.34266,36.75576 -151.19306,46.78275 22.32771,18.27551 40.72249,3.76154 25.47381,37.612 z M 558.16935,743.37517 c 3.05311,-25.49308 14.06788,-60.74686 13.924,-88.03526 -10.62724,-40.87793 20.9629,-26.29477 32.73348,-51.93165 -38.151,16.30083 40.50249,-32.92731 -7.23812,-8.33073 -31.19288,10.96824 -67.89903,-30.21603 -83.69426,19.56425 -33.93989,38.65942 -111.74681,-18.06234 -122.47127,23.24853 -33.54276,265.94588 -14.5679,151.85806 46.70656,129.8876 -23.1743,-53.65857 39.75747,-118.28976 74.51992,-115.07271 -61.2424,262.26755 6.67901,163.63901 45.51969,90.66997 z m -273.45083,18.76949 c 44.09321,-1.74882 56.48076,-14.27401 50.28148,-54.65395 33.33772,-22.59703 -19.14294,-51.04516 20.37199,-66.23895 -1.00763,-18.86227 71.55198,-67.93364 20.0763,-40.42878 -43.58697,27.51874 -83.05772,41.09593 -90.85907,99.07067 -23.54992,-2.41108 -96.89669,53.45409 -38.04858,38.77596 51.6379,-41.7569 9.95301,21.2184 27.14802,27.3428 4.49342,-0.1022 7.42042,-1.54039 11.02992,-3.86775 z M 206.153,720 c 9.25487,-37.49035 48.12585,-100.35853 -19.23603,-83.44831 -62.74011,13.04147 17.08813,61.87968 12.28088,98.53828 0.0461,14.78611 5.90974,-15.03651 6.95515,-15.08997 z m 405.40976,-20.13391 c 5.11383,-24.7354 15.78137,-99.97034 16.3543,-75.70007 10.44146,-74.30798 -26.90023,46.93889 -16.3543,75.70007 z M 246.76389,683.125 c 28.6794,-2.07085 98.59118,-95.49144 42.33029,-49.81299 -10.76104,4.17425 -62.69267,52.82382 -42.33029,49.81299 z m 31.75785,-79.29064 c 29.61292,-37.93404 60.06732,-15.51823 97.72122,-37.12764 20.425,-4.14702 69.57065,-38.28193 20.8992,-21.06139 -31.89985,5.41851 -64.28537,37.07843 -72.32503,8.91743 -30.50421,-16.4669 -63.57741,15.50132 -56.98999,50.38039 3.55688,-0.44267 7.09774,-1.03203 10.6946,-1.10879 z m 424.75982,-28.56059 c 66.24103,-63.0661 -46.30877,32.96896 0,0 z M 585,585.13551 c 6.89086,-21.55622 32.90182,-37.90325 14.51333,-4.76023 -4.99918,2.13034 -9.08074,5.80493 -14.51333,4.76023 z M 631.875,567.5 c -18.83996,6.78715 11.23189,-38.69528 6.87491,-54.5572 24.37097,-71.48069 -5.13581,59.47627 -6.87491,54.5572 z m -12.45611,-88.66513 c 1.54861,-22.56917 62.75259,-27.79677 10.32281,-3.05569 -3.25916,-1.10246 -7.99072,12.91133 -10.32281,3.05569 z"
       id="path3759"
       inkscape:connector-curvature="0"
       sodipodi:nodetypes="cccccccccccccccccccccccccccccccccccccccccccccccccccccccccccccccccccccccccccccccccccccccccccccc" />
  </g>
  <g
     inkscape:groupmode="layer"
     id="layer3"
     inkscape:label="Dark Purple"
     style="display:inline"
     transform="translate(-35.251043,-23.140425)">
    <path
       transform="translate(12.751043,4.2503449)"
       style="fill:#230126"
       d="M 26.556244,1239.6875 C 44.549123,1202.289 45.413312,1147.8897 46.647296,1102.5 56.298651,1048.6435 49.060739,993.22561 63.846253,940.11405 73.432051,899.02665 82.500708,832.0534 101.2299,808.4375 c -8.122334,56.43169 2.16826,100.16671 -14.344065,148.4375 -5.934485,54.9684 -14.444457,110.2604 -10.831992,165.625 -7.136828,-22.6993 42.760967,-109.2965 20.232803,-43.1726 -10.450589,44.5223 -28.233389,73.8845 -25.855789,118.6054 11.351952,-30.0143 24.077556,-49.7413 45.788033,-69.1654 3.40856,-46.3785 10.5423,-90.9767 30.30721,-130.33923 33.62794,-105.62069 36.03664,-218.47828 74.40769,-322.93508 10.7637,-29.26445 36.83253,-117.50056 21.56621,-109.34533 0.3907,27.03279 -16.39676,-24.70669 -28.75311,10.60362 -42.48215,28.11043 -49.8684,-46.41776 -25.15237,-62.32704 -18.45628,25.01154 -44.66063,38.81477 -12.97509,2.73888 27.91105,-44.00074 67.22657,-39.11948 69.64789,12.64149 7.63219,19.65696 6.06283,93.62944 16.91939,37.22432 0.65189,-25.80249 21.35277,-87.9371 28.04748,-86.54046 -19.47483,28.74612 49.23699,-1.36843 9.27321,20.83971 30.03245,9.51978 46.09734,79.80325 7.98431,34.02581 -58.50835,-8.98724 -33.28502,100.93485 -65.65656,137.14594 -13.15802,25.3564 -50.50186,111.25468 7.46884,68.33066 55.27017,-32.72971 -4.13939,48.49743 -30.86183,51.25813 -5.83405,23.58848 65.77723,-27.31112 28.31511,13.53618 -11.8519,16.16674 -74.52734,75.20665 -24.24877,33.125 21.99429,-27.0958 65.31132,-61.52688 85.73506,-51.57994 -38.42447,40.81687 26.76563,10.32138 36.00043,-11.68964 36.76032,-33.84249 21.63378,69.35329 -3.07377,76.08208 C 303.90169,900.22384 240.07565,837.0396 205,891.29151 c 19.32126,14.92326 -51.97809,16.73702 -7.5,36.79999 -31.97086,25.46911 -8.34084,13.27395 7.47322,2.08635 5.95368,24.23725 -64.35892,66.2351 -43.3545,80.16605 33.16159,-32.41041 66.81641,-54.52218 107.27395,-75.8516 30.07837,-11.68705 98.18877,-91.77586 82.25634,-20.07275 -8.84228,46.05108 -89.52314,47.37368 -120.11627,89.07895 -9.23082,28.3426 -72.64422,42.4638 -36.03274,50.9257 5.75486,2.1147 31.60151,-19.6212 53.86733,-11.2623 20.87703,-0.5667 118.821,-1.113 52.57776,-10.2598 39.81215,-4.0907 19.66049,-13.5769 8.58615,-21.4208 3.27115,-15.34122 -65.82465,11.303 -80.89197,28.8134 -53.22423,7.7636 34.14994,-44.0535 54.72397,-55.06944 28.50921,-7.00218 80.6205,-76.16487 64.37729,-9.03926 -5.64453,33.0979 15.22219,95.5391 -40.74053,72.5163 -40.1407,-3.3586 -124.72924,4.0442 -100.90431,28.4979 -21.86629,28.704 178.72882,-11.0105 138.235,39.5259 -7.35318,11.5659 -47.61947,28.9629 -71.8796,39.1461 -22.5404,10.9795 -84.31918,82.5186 -29.35397,42.2295 58.56444,-41.2287 101.93519,-74.8371 160.81189,-53.1301 48.60405,-10.9175 0.7259,-26.3605 -23.29541,-29.4979 -16.79617,-31.4756 11.61189,-103.3252 48.96759,-114.8074 29.94582,-37.41358 43.38323,-45.22442 80.64187,-71.37461 -9.86855,-45.98868 45.96809,-1.64849 72.85978,12.76888 19.84629,14.46237 46.83484,26.68922 9.54216,1.61354 -23.64616,-30.74897 -124.84438,-41.78869 -90.50466,-87.42411 39.47727,42.94465 102.52138,49.15413 114.26687,-20.17469 1.06375,-46.57883 2.40532,-93.0256 9.25148,-141.23098 0.63568,-27.06559 16.38981,-45.53817 5.43581,-73.02699 22.13018,22.32715 61.85888,-93.92287 44.2441,-34.11985 -28.88018,81.75567 22.33566,-67.53871 52.02734,-38.79917 -21.77966,5.47637 -65.35253,72.89046 -22.5681,26.64132 51.84826,-52.37234 -3.13328,37.08147 -2.5234,38.52286 2.65808,6.2821 57.59655,-43.80325 51.79856,-19.68819 26.80962,6.07739 22.85979,-35.82366 1.8616,-26.26622 51.84831,-25.68507 24.12353,-103.6369 25.44114,-152.16239 -2.26897,-10.32893 97.99667,-24.75364 58.63583,-55.3647 -30.10969,-11.03797 -63.10299,51.6586 -33.00232,-0.65524 7.07263,-48.31983 65.65747,-66.08607 98.22857,-65.52469 -34.24408,3.46989 -102.83897,26.90453 -83.84282,61.86852 38.16079,12.62685 27.72594,-59.86414 67.67485,-23.35721 18.4517,-6.30804 111.04445,-43.87987 48.86544,-11.51806 -35.88556,7.59761 -40.55535,56.56169 -70.59417,73.52006 27.7737,33.18322 64.87029,-33.21464 68.24036,-42.33631 8.51692,34.68788 -92.1103,72.32224 -22.87464,69.79668 33.77829,2.67145 51.50414,-95.61316 36.91921,-27.98508 -11.00622,46.75923 -75.93219,39.54872 -78.25085,16.83846 -18.71486,8.51681 -6.02951,-59.22053 -26.10033,-18.80001 -34.43981,11.88675 -88.24494,42.50705 -34.33322,73.17788 31.18814,20.20119 112.92352,46.68146 133.36616,18.29128 18.93992,-8.85476 6.10272,13.578 6.61569,82.52705 -4.96849,54.11699 -22.11928,122.03984 -75.13556,150.71179 -56.67728,25.58989 -84.6338,25.6386 -143.04641,16.63557 -63.01705,2.5011 -41.6923,82.80879 -67.82174,122.04476 -16.85587,47.38187 -41.83908,93.52951 -41.25105,143.11681 -0.1935,62.21194 -13.69753,122.80014 -6.39161,184.91114 -31.4281,15.6008 -82.8173,13.8962 -75.68941,56.6322 -171.60793,-12.0673 -346.11873,5.518 -515.511476,-0.7891 z M 152.5,1092.49 c 27.70878,-23.3596 -8.31846,-73.1063 -9.50936,-18.9595 7.76765,7.9973 -11.39583,28.1724 9.50936,18.9595 z m 31.01392,-0.9275 c -26.25748,-35.0056 -23.65341,2.6183 0,0 z m 4.20403,-9.468 c 17.88915,13.192 0.15488,-55.8042 -15.21795,-14.5258 1.27705,8.4424 2.58162,26.6165 15.21795,14.5258 z m -18.5988,-17.2136 c -6.0624,-20.1037 -6.00598,21.3121 0,0 z m -88.691016,-7.1483 c 14.668505,-37.1215 9.130519,-109.609 44.159606,-123.86934 12.48852,25.62415 -14.47396,76.12474 -27.190933,105.60514 -5.699329,2.8068 -20.17139,52.6145 -16.968673,18.2642 z M 383.75,649.47916 c -39.78518,4.28997 52.9256,-91.14778 -10.98435,-52.50156 -20.41957,16.53672 -87.29134,53.55079 -42.61321,1.88069 22.10393,-28.10882 91.70942,-35.64467 88.87777,-61.71667 -28.90009,4.69494 -114.13004,40.57508 -54.80839,-7.80875 43.12795,-20.90822 88.77143,-0.53408 116.06948,-49.95787 12.22852,-12.18459 57.45548,-2.76676 92.69881,4.1609 32.12043,2.59681 54.76378,-0.0273 24.17993,29.24137 -12.34674,34.70895 -4.90861,-41.18941 -31.39332,2.13135 -13.44153,25.14906 -33.88401,-20.78296 -40.68541,22.2081 -37.90615,10.92184 -81.59721,32.0535 -111.34131,37.18809 12.70134,-26.62316 22.51111,-45.46628 -0.29072,-8.71801 -16.28789,24.14701 -15.8169,72.01833 -29.70928,83.89236 z M 645.78768,591.5625 c 0.29861,-34.77191 91.75843,-78.86522 36.87659,-33.74338 -12.6115,2.98588 -29.67626,42.00082 -36.87659,33.74338 z m -318.03443,-100 c -24.63345,-9.12738 -14.03621,-58.20677 10.84049,-83.125 0.2123,-32.63418 31.77352,33.56093 2.0095,56.67617 -3.26489,4.75557 -8.09778,35.74637 -12.84999,26.44883 z M 268.75,465.96452 c 11.55249,-20.36049 79.75059,-76.32747 37.16561,-22.24895 -4.00742,16.64483 -23.03201,22.25625 -37.16561,22.24895 z M 1022.5,403.75 c -25.49829,-6.78811 10.5334,-6.10121 7.8894,2.20498 z m -10.7352,-34.9287 c -31.53121,-20.43846 29.8307,12.27846 52.7546,26.61916 z"
       id="path3757"
       inkscape:connector-curvature="0"
       sodipodi:nodetypes="ccccccccccccccccccccccccccccccccccccccccccccccccccccccccccccscccccccccccccccccccccccccccccccccccccccccccccccccccccccccccccccccccc" />
  </g>
  <g
     inkscape:groupmode="layer"
     id="layer5"
     inkscape:label="Black"
     style="display:inline"
     transform="translate(-35.251043,-23.140425)">
    <path
       transform="translate(12.751043,4.2503449)"
       style="fill:#050005"
       d="m 58.82263,1235.9375 c 1.038613,-48.6087 9.622709,-97.6549 11.112698,-147.0266 13.146364,27.8295 -9.032647,90.855 1.861523,112.7178 55.211329,15.626 47.687689,-51.916 58.260299,-88.2197 4.80503,-41.6566 9.04298,-88.2419 23.45435,-124.98441 12.05908,-44.78353 18.49782,-99.79822 32.2898,-140.21375 -0.71586,-18.12632 8.04819,-54.86407 14.91081,-77.89834 18.06424,-82.24462 58.06103,-157.61843 72.40417,-240.85426 -5.7515,-26.80307 53.55069,-53.80049 28.23096,-24.45824 28.83326,7.53794 36.66101,72.04396 11.03265,24.23049 -39.29759,-26.378 -48.72708,62.01808 -56.93621,91.65916 -16.70988,56.64798 -49.2533,110.25895 -46.7358,171.16092 -8.01078,31.91853 60.83831,-4.85229 19.74751,30.61685 -13.38529,9.02173 -58.01493,60.3595 -16.14461,29.14144 23.70327,-10.64308 42.10929,-45.98657 51.43922,-10.49007 54.99036,29.25099 -45.4327,11.48879 -56.875,40.54008 -36.34744,30.9348 -20.94492,70.51135 -47.09355,113.44482 -6.30188,40.58101 -18.53081,59.50341 -19.10526,99.89511 125.84656,0.3844 -27.20703,6.3641 1.03096,78.809 7.83607,36.011 -31.12887,100.4577 -64.753897,48.738 -7.904773,-14.6032 -7.734673,37.3344 -18.130623,13.1917 z M 187.10389,838.51562 c -2.40628,0.54214 1.79066,5.47921 0,0 z m 170.84562,400.86598 c -31.31357,-50.4766 80.32428,-20.7637 111.91945,-31.1403 32.25002,1.9827 100.57254,-17.6994 71.80709,33.0087 -61.19744,-0.7794 -122.86022,1.8802 -183.72654,-1.8684 z m -72.57992,-44.0363 c -4.46191,-12.9535 77.97106,-69.3322 57.89658,-11.1411 0.94607,11.8164 -45.37227,8.0704 -57.89658,11.1411 z m -68.99932,-90.6272 c 12.88112,-10.4678 82.65633,-4.0856 113.92547,-7.1433 38.57452,4.6798 -43.28963,3.5244 -58.27674,5.8637 -18.41193,2.2328 -37.15652,2.7827 -55.64873,1.2796 z m 7.06723,-67.3182 c 20.84016,-36.1398 75.01351,-53.26223 111.17171,-78.06075 24.6085,-21.72948 17.36176,70.80075 -17.80167,38.61559 -37.00522,-1.53041 -64.49681,30.49526 -93.37004,39.44516 z m -14.13616,-28.7691 c 17.31186,-45.99445 71.84691,-65.03645 107.33833,-96.09226 17.03542,-9.61528 44.56878,-46.50915 33.44867,-3.00947 -18.84235,40.86983 -89.53231,50.84791 -121.87907,90.78343 -6.26097,-0.81459 -12.64119,12.7096 -18.90793,8.3183 z m 410.11387,-69.27332 c -30.9487,-33.02159 -91.64791,-52.96304 -114.96349,-80.53559 38.77964,31.52956 92.34815,43.92433 123.04828,84.95431 0.44325,6.25759 -12.51568,-7.90824 -8.08479,-4.41872 z M 637.55927,908.75 c 4.16893,-57.12359 4.92189,-115.27369 5.21604,-172.88919 -2.33914,-55.74831 -15.36993,-95.98729 20.86449,-136.5126 35.04985,-70.81477 -29.1363,89.87192 4.02647,41.70897 11.29323,-30.2906 30.56354,-61.04127 57.33373,-78.02394 -18.00211,26.31149 -39.55733,70.65464 -32.7746,96.33138 8.83457,-42.84418 29.90736,-33.20203 44.63983,-67.98032 37.56439,-13.63427 -32.10804,38.53031 -12.18818,59.38201 -7.36212,21.66728 -9.89971,58.40397 3.50296,13.20433 -6.68167,-29.10031 46.40426,-101.15236 27.09059,-34.59202 -12.09582,27.29174 -8.3025,55.88665 3.47121,11.18388 16.53464,-62.51215 18.76005,52.01195 28.38183,74.66608 7.62758,50.23599 -98.14592,-14.94943 -99.80867,50.78421 -3.31547,22.95183 -19.6366,99.54265 -29.02686,42.77225 -5.77737,29.71454 -8.6308,84.10288 -20.72884,99.96496 z M 318.24689,845.33023 c -4.33874,-30.83052 60.00152,-95.92504 41.10697,-26.72705 2.90111,21.48236 -25.68172,26.31296 -41.10697,26.72705 z M 778.17781,642.1875 c -1.93951,-45.48229 21.47986,-73.72423 15.48683,-113.18485 -13.51813,-31.0162 -14.95716,-102.62512 29.6088,-54.30869 30.78753,28.39371 81.1421,10.82267 105.01625,2.22837 -20.70139,41.84052 -3.26724,125.56855 -77.48991,98.9897 -25.91361,-5.82413 -52.08312,-49.55928 -50.98365,1.05858 -0.59451,17.9522 -11.83394,58.36818 -21.63832,65.21689 z m 110.92224,-72.77754 c 31.75294,-9.99097 -19.75393,-11.04689 10.18579,-30.20776 6.35196,-23.09663 22.21175,-39.73024 -9.93891,-19.4602 -39.94518,21.76355 -108.74218,-45.69847 -99.05984,-39.98633 6.28083,44.86058 47.69378,99.93937 98.81296,89.65429 z M 345,601.97744 c 8.94282,-29.61759 100.22774,-58.50569 38.47474,-17.80919 -11.72961,5.76934 -27.1364,17.8703 -38.47474,17.80919 z m 545.87179,60.2343 c -7.86658,-22.98298 53.12269,-149.77651 60.88447,-112.53477 17.93365,-6.87403 -41.14865,125.6158 -60.88447,112.53477 z m -688.7747,-99.28133 c -14.69292,-20.15511 -37.41016,-19.61897 -9.89821,-46.09461 -1.82166,-18.46125 -50.88216,52.0169 -22.80447,8.29194 18.35955,-25.44851 67.56388,-64.48913 65.58989,-5.8822 2.70948,28.78871 14.27025,46.6388 -13.56515,41.38521 -6.38545,0.8508 -12.81334,3.05582 -19.32206,2.29966 z M 441.99312,546.875 c -8.32541,-23.5799 48.64255,-74.38654 77.39429,-71.95969 35.41069,10.02602 66.42174,11.51017 84.36405,19.78649 -8.03669,18.34992 -39.22654,-2.75206 -47.08292,29.38007 -22.25789,-30.84488 -28.72376,27.74067 -62.88338,14.31399 -22.14958,3.47465 -29.16028,1.62939 -51.79204,8.47914 z M 353.75,542.05577 c 12.50729,-33.74289 123.16502,-30.06338 54.17077,-4.56922 -17.18088,2.73014 -38.14495,6.82207 -54.17077,4.56922 z M 325.58577,478.125 c -21.58177,-8.10985 24.00752,-107.73794 25.9473,-51.03989 2.72211,16.12563 -14.98366,48.02331 -25.9473,51.03989 z M 282.5,458.43731 c 15.97752,-24.94904 38.21231,-33.44646 13.09181,-0.90977 -2.44464,-1.34501 -10.81934,5.9829 -13.09181,0.90977 z m 156.14584,-65.2012 c -37.44547,12.22301 -98.35266,-43.16103 -51.09675,-63.19298 12.80899,20.0375 23.74425,21.3422 43.91341,34.02382 17.14424,-5.09943 31.25552,4.06289 50.77261,-12.16091 -2.94516,-17.11858 34.4815,-24.17166 10.44941,11.08602 -12.00815,16.74641 -32.12702,33.19362 -54.03868,30.24405 z M 468.75,303.6032 c -17.47078,-2.05167 -92.62513,-5.1262 -35.2186,-11.32457 8.56428,-5.29258 72.70812,7.45753 35.2186,11.32457 z m 4.26121,-57.82397 c 3.36371,-16.12297 9.87239,3.85827 0,0 z m -33.50136,-1.50355 c 2.17552,-27.40216 23.87364,8.86144 0,0 z M 310.53564,214.89957 c -47.45468,-28.60551 -30.16721,-98.03912 -9.78826,-138.667324 32.03098,-49.016518 91.32663,-57.357158 145.07807,-54.906037 56.23512,9.681318 75.27091,68.57458 99.26559,112.533481 19.60193,24.30955 -3.31824,104.42366 -6.2524,35.95923 C 541.0128,117.53779 509.42944,53.502363 449.59737,55.130128 389.58882,40.866339 311.57983,82.20751 336.97106,150.67546 c -12.41967,14.48562 -4.14931,70.95515 -26.43542,64.22411 z m 185.03255,-32.96776 c -8.05337,-21.74014 32.62091,7.16867 0,0 z m -99.0334,0.51899 c -16.13058,-29.09501 38.41481,-3.27512 0,0 z M 371.64255,171.72 c 9.41314,-37.75147 86.68861,-0.72282 25.03702,-13.64604 -11.00704,-1.86947 -16.84306,12.70523 -25.03702,13.64604 z m 138.0773,-10.55202 c -42.2458,-2.97218 -6.08114,-17.38334 3.68028,1.24601 l -3.68028,-1.24605 z M 373.0736,143.66684 c 8.40552,-14.39147 61.59863,6.27167 0,0 z"
       id="path3753"
       inkscape:connector-curvature="0"
       sodipodi:nodetypes="cccccccccccccccccccccccccccccccccccccccccccccccccccccccccccccccccccccccccccccccccccccccccccccccccccccccccccccccccccccccccccccccccccccccccc" />
  </g>
</svg>
